  0
SECTION
  2
HEADER
  9
$ANGBASE
  50
0.0
  9
$ANGDIR
  70
1
  9
$MEASUREMENT
  70
1
  0
ENDSEC
  0
SECTION
  2
TABLES
  0
TABLE
  2
LTYPE
  70
4
  0
LTYPE
  5
40F
  2
CONTINUOUS
  70
0
  3
Solid line
  72
65
  73
0
  40
0.0
  0
LTYPE
  5
410
  2
DASHDOT
 70
0
  3
Dash Dot ____ _ ____ _
 72
65
 73
4
 40
2.0
 49
1.25
 49
-0.25
 49
0.25
 49
-0.25
  0
LTYPE
  5
411
  2
DASHED
 70
0
  3
Dashed __ __ __ __ __
 72
65
 73
2
 40
0.75
 49
0.5
 49
-0.25
  0
LTYPE
  5
43B
  2
DOTTED
 70
0
  3
Dotted .  .  .  .
 72
65
 73
2
 40
0.2
 49
0.0
 49
-0.2
  0
ENDTAB
  0
TABLE
  2
STYLE
  70
4
  0
STYLE
  2
KICAD
  70
0
  40
0
  41
1
  42
1
  50
0
  71
0
  3
isocp.shx
  0
STYLE
  2
KICADB
  70
0
  40
0
  41
1
  42
1
  50
0
  71
0
  3
isocp.shx
  0
STYLE
  2
KICADI
  70
0
  40
0
  41
1
  42
1
  50
15
  71
0
  3
isocp.shx
  0
STYLE
  2
KICADBI
  70
0
  40
0
  41
1
  42
1
  50
15
  71
0
  3
isocp.shx
  0
ENDTAB
  0
TABLE
  2
LAYER
  70
1
  0
LAYER
  2
BLACK
  70
0
  62
7
  6
CONTINUOUS
  0
ENDTAB
  0
ENDSEC
  0
SECTION
  2
ENTITIES
0
LINE
8
BLACK
6
CONTINUOUS
10
57.7149999999999963
20
111.4899999999999949
11
71.8250000000000028
21
111.4899999999999949
0
LINE
8
BLACK
6
CONTINUOUS
10
71.8250000000000028
20
111.4899999999999949
11
71.8250000000000028
21
97.5600000000000023
0
LINE
8
BLACK
6
CONTINUOUS
10
71.8250000000000028
20
97.5600000000000023
11
57.7149999999999963
21
97.5600000000000023
0
LINE
8
BLACK
6
CONTINUOUS
10
57.7149999999999963
20
97.5600000000000023
11
57.7149999999999963
21
111.4899999999999949
0
LINE
8
BLACK
6
CONTINUOUS
10
79.3449999999999989
20
98.7399999999999949
11
88.2049999999999983
21
98.7399999999999949
0
LINE
8
BLACK
6
CONTINUOUS
10
88.2049999999999983
20
98.7399999999999949
11
88.2049999999999983
21
94.9799999999999898
0
LINE
8
BLACK
6
CONTINUOUS
10
88.2049999999999983
20
94.9799999999999898
11
79.3449999999999989
21
94.9799999999999898
0
LINE
8
BLACK
6
CONTINUOUS
10
79.3449999999999989
20
94.9799999999999898
11
79.3449999999999989
21
98.7399999999999949
0
LINE
8
BLACK
6
CONTINUOUS
10
79.394999999999996
20
113.769999999999996
11
88.2449999999999903
21
113.769999999999996
0
LINE
8
BLACK
6
CONTINUOUS
10
88.2449999999999903
20
113.769999999999996
11
88.2449999999999903
21
110.
0
LINE
8
BLACK
6
CONTINUOUS
10
88.2449999999999903
20
110.
11
79.394999999999996
21
110.
0
LINE
8
BLACK
6
CONTINUOUS
10
79.394999999999996
20
110.
11
79.394999999999996
21
113.769999999999996
0
LINE
8
BLACK
6
CONTINUOUS
10
-20.9049999999999976
20
58.3999999999999986
11
1.0549999999999999
21
58.3999999999999986
0
LINE
8
BLACK
6
CONTINUOUS
10
1.0549999999999999
20
58.3999999999999986
11
1.0549999999999999
21
37.2899999999999991
0
LINE
8
BLACK
6
CONTINUOUS
10
1.0549999999999999
20
37.2899999999999991
11
-20.9049999999999976
21
37.2899999999999991
0
LINE
8
BLACK
6
CONTINUOUS
10
-20.9049999999999976
20
37.2899999999999991
11
-20.9049999999999976
21
58.3999999999999986
0
LINE
8
BLACK
6
CONTINUOUS
10
-9.5
20
-42.8200000000000003
11
-5.7299999999999995
21
-42.8200000000000003
0
LINE
8
BLACK
6
CONTINUOUS
10
-5.7299999999999995
20
-42.8200000000000003
11
-5.7299999999999995
21
-46.1799999999999997
0
LINE
8
BLACK
6
CONTINUOUS
10
-5.7299999999999995
20
-46.1799999999999997
11
-9.5
21
-46.1799999999999997
0
LINE
8
BLACK
6
CONTINUOUS
10
-9.5
20
-46.1799999999999997
11
-9.5
21
-42.8200000000000003
0
LINE
8
BLACK
6
CONTINUOUS
10
-20.8999999999999986
20
104.0999999999999943
11
-17.1999999999999993
21
104.0999999999999943
0
LINE
8
BLACK
6
CONTINUOUS
10
-17.1999999999999993
20
104.0999999999999943
11
-17.1999999999999993
21
94.8999999999999915
0
LINE
8
BLACK
6
CONTINUOUS
10
-17.1999999999999993
20
94.8999999999999915
11
-20.8999999999999986
21
94.8999999999999915
0
LINE
8
BLACK
6
CONTINUOUS
10
-20.8999999999999986
20
94.8999999999999915
11
-20.8999999999999986
21
104.0999999999999943
0
LINE
8
BLACK
6
CONTINUOUS
10
22.1050000000000004
20
54.3999999999999986
11
36.0949999999999989
21
54.3999999999999986
0
LINE
8
BLACK
6
CONTINUOUS
10
36.0949999999999989
20
54.3999999999999986
11
36.0949999999999989
21
40.4200000000000017
0
LINE
8
BLACK
6
CONTINUOUS
10
36.0949999999999989
20
40.4200000000000017
11
22.1050000000000004
21
40.4200000000000017
0
LINE
8
BLACK
6
CONTINUOUS
10
22.1050000000000004
20
40.4200000000000017
11
22.1050000000000004
21
54.3999999999999986
0
LINE
8
BLACK
6
CONTINUOUS
10
43.5449999999999946
20
92.4899999999999949
11
57.5349999999999966
21
92.4899999999999949
0
LINE
8
BLACK
6
CONTINUOUS
10
57.5349999999999966
20
92.4899999999999949
11
57.5349999999999966
21
78.5099999999999909
0
LINE
8
BLACK
6
CONTINUOUS
10
57.5349999999999966
20
78.5099999999999909
11
43.5449999999999946
21
78.5099999999999909
0
LINE
8
BLACK
6
CONTINUOUS
10
43.5449999999999946
20
78.5099999999999909
11
43.5449999999999946
21
92.4899999999999949
0
LINE
8
BLACK
6
CONTINUOUS
10
-20.8499999999999979
20
70.8799999999999955
11
-17.1499999999999986
21
70.8799999999999955
0
LINE
8
BLACK
6
CONTINUOUS
10
-17.1499999999999986
20
70.8799999999999955
11
-17.1499999999999986
21
61.6799999999999997
0
LINE
8
BLACK
6
CONTINUOUS
10
-17.1499999999999986
20
61.6799999999999997
11
-20.8499999999999979
21
61.6799999999999997
0
LINE
8
BLACK
6
CONTINUOUS
10
-20.8499999999999979
20
61.6799999999999997
11
-20.8499999999999979
21
70.8799999999999955
0
LINE
8
BLACK
6
CONTINUOUS
10
72.125
20
73.4399999999999977
11
86.1149999999999949
21
73.4399999999999977
0
LINE
8
BLACK
6
CONTINUOUS
10
86.1149999999999949
20
73.4399999999999977
11
86.1149999999999949
21
59.4600000000000009
0
LINE
8
BLACK
6
CONTINUOUS
10
86.1149999999999949
20
59.4600000000000009
11
72.125
21
59.4600000000000009
0
LINE
8
BLACK
6
CONTINUOUS
10
72.125
20
59.4600000000000009
11
72.125
21
73.4399999999999977
0
LINE
8
BLACK
6
CONTINUOUS
10
53.0749999999999957
20
73.4399999999999977
11
67.0649999999999977
21
73.4399999999999977
0
LINE
8
BLACK
6
CONTINUOUS
10
67.0649999999999977
20
73.4399999999999977
11
67.0649999999999977
21
59.4600000000000009
0
LINE
8
BLACK
6
CONTINUOUS
10
67.0649999999999977
20
59.4600000000000009
11
53.0749999999999957
21
59.4600000000000009
0
LINE
8
BLACK
6
CONTINUOUS
10
53.0749999999999957
20
59.4600000000000009
11
53.0749999999999957
21
73.4399999999999977
0
LINE
8
BLACK
6
CONTINUOUS
10
93.0150000000000006
20
114.1099999999999994
11
93.394999999999996
21
114.1099999999999994
0
LINE
8
BLACK
6
CONTINUOUS
10
93.394999999999996
20
114.1099999999999994
11
93.394999999999996
21
113.6799999999999926
0
LINE
8
BLACK
6
CONTINUOUS
10
93.394999999999996
20
113.6799999999999926
11
93.0150000000000006
21
113.6799999999999926
0
LINE
8
BLACK
6
CONTINUOUS
10
93.0150000000000006
20
113.6799999999999926
11
93.0150000000000006
21
114.1099999999999994
0
LINE
8
BLACK
6
CONTINUOUS
10
34.0249999999999986
20
73.4399999999999977
11
48.0150000000000006
21
73.4399999999999977
0
LINE
8
BLACK
6
CONTINUOUS
10
48.0150000000000006
20
73.4399999999999977
11
48.0150000000000006
21
59.4600000000000009
0
LINE
8
BLACK
6
CONTINUOUS
10
48.0150000000000006
20
59.4600000000000009
11
34.0249999999999986
21
59.4600000000000009
0
LINE
8
BLACK
6
CONTINUOUS
10
34.0249999999999986
20
59.4600000000000009
11
34.0249999999999986
21
73.4399999999999977
0
LINE
8
BLACK
6
CONTINUOUS
10
19.7349999999999994
20
111.539999999999992
11
33.7250000000000014
21
111.539999999999992
0
LINE
8
BLACK
6
CONTINUOUS
10
33.7250000000000014
20
111.539999999999992
11
33.7250000000000014
21
97.5600000000000023
0
LINE
8
BLACK
6
CONTINUOUS
10
33.7250000000000014
20
97.5600000000000023
11
19.7349999999999994
21
97.5600000000000023
0
LINE
8
BLACK
6
CONTINUOUS
10
19.7349999999999994
20
97.5600000000000023
11
19.7349999999999994
21
111.539999999999992
0
CIRCLE
8
BLACK
10
17.5350000000000001
20
56.6699999999999946
40
1.0999999999999999
0
LINE
8
BLACK
6
CONTINUOUS
10
62.5949999999999989
20
92.4899999999999949
11
76.5849999999999937
21
92.4899999999999949
0
LINE
8
BLACK
6
CONTINUOUS
10
76.5849999999999937
20
92.4899999999999949
11
76.5849999999999937
21
78.5099999999999909
0
LINE
8
BLACK
6
CONTINUOUS
10
76.5849999999999937
20
78.5099999999999909
11
62.5949999999999989
21
78.5099999999999909
0
LINE
8
BLACK
6
CONTINUOUS
10
62.5949999999999989
20
78.5099999999999909
11
62.5949999999999989
21
92.4899999999999949
0
LINE
8
BLACK
6
CONTINUOUS
10
24.4949999999999974
20
92.4899999999999949
11
38.4849999999999994
21
92.4899999999999949
0
LINE
8
BLACK
6
CONTINUOUS
10
38.4849999999999994
20
92.4899999999999949
11
38.4849999999999994
21
78.5099999999999909
0
LINE
8
BLACK
6
CONTINUOUS
10
38.4849999999999994
20
78.5099999999999909
11
24.4949999999999974
21
78.5099999999999909
0
LINE
8
BLACK
6
CONTINUOUS
10
24.4949999999999974
20
78.5099999999999909
11
24.4949999999999974
21
92.4899999999999949
0
LINE
8
BLACK
6
CONTINUOUS
10
-18.3649999999999984
20
111.5499999999999972
11
-4.375
21
111.5499999999999972
0
LINE
8
BLACK
6
CONTINUOUS
10
-4.375
20
111.5499999999999972
11
-4.375
21
97.5699999999999932
0
LINE
8
BLACK
6
CONTINUOUS
10
-4.375
20
97.5699999999999932
11
-18.3649999999999984
21
97.5699999999999932
0
LINE
8
BLACK
6
CONTINUOUS
10
-18.3649999999999984
20
97.5699999999999932
11
-18.3649999999999984
21
111.5499999999999972
0
LINE
8
BLACK
6
CONTINUOUS
10
0.6849999999999999
20
111.539999999999992
11
14.6749999999999989
21
111.539999999999992
0
LINE
8
BLACK
6
CONTINUOUS
10
14.6749999999999989
20
111.539999999999992
11
14.6749999999999989
21
97.5600000000000023
0
LINE
8
BLACK
6
CONTINUOUS
10
14.6749999999999989
20
97.5600000000000023
11
0.6849999999999999
21
97.5600000000000023
0
LINE
8
BLACK
6
CONTINUOUS
10
0.6849999999999999
20
97.5600000000000023
11
0.6849999999999999
21
111.539999999999992
0
LINE
8
BLACK
6
CONTINUOUS
10
14.9749999999999996
20
73.4399999999999977
11
28.9649999999999999
21
73.4399999999999977
0
LINE
8
BLACK
6
CONTINUOUS
10
28.9649999999999999
20
73.4399999999999977
11
28.9649999999999999
21
59.4600000000000009
0
LINE
8
BLACK
6
CONTINUOUS
10
28.9649999999999999
20
59.4600000000000009
11
14.9749999999999996
21
59.4600000000000009
0
LINE
8
BLACK
6
CONTINUOUS
10
14.9749999999999996
20
59.4600000000000009
11
14.9749999999999996
21
73.4399999999999977
0
LINE
8
BLACK
6
CONTINUOUS
10
-20.9049999999999976
20
114.1099999999999994
11
93.394999999999996
21
114.1099999999999994
0
LINE
8
BLACK
6
CONTINUOUS
10
93.394999999999996
20
114.1099999999999994
11
93.394999999999996
21
37.2899999999999991
0
LINE
8
BLACK
6
CONTINUOUS
10
93.394999999999996
20
37.2899999999999991
11
-20.9049999999999976
21
37.2899999999999991
0
LINE
8
BLACK
6
CONTINUOUS
10
-20.9049999999999976
20
37.2899999999999991
11
-20.9049999999999976
21
114.1099999999999994
0
LINE
8
BLACK
6
CONTINUOUS
10
38.7849999999999966
20
111.539999999999992
11
52.7749999999999986
21
111.539999999999992
0
LINE
8
BLACK
6
CONTINUOUS
10
52.7749999999999986
20
111.539999999999992
11
52.7749999999999986
21
97.5600000000000023
0
LINE
8
BLACK
6
CONTINUOUS
10
52.7749999999999986
20
97.5600000000000023
11
38.7849999999999966
21
97.5600000000000023
0
LINE
8
BLACK
6
CONTINUOUS
10
38.7849999999999966
20
97.5600000000000023
11
38.7849999999999966
21
111.539999999999992
0
LINE
8
BLACK
6
CONTINUOUS
10
6.7149999999999999
20
72.019999999999996
11
11.3849999999999998
21
72.019999999999996
0
LINE
8
BLACK
6
CONTINUOUS
10
11.3849999999999998
20
72.019999999999996
11
11.3849999999999998
21
59.0700000000000003
0
LINE
8
BLACK
6
CONTINUOUS
10
11.3849999999999998
20
59.0700000000000003
11
6.7149999999999999
21
59.0700000000000003
0
LINE
8
BLACK
6
CONTINUOUS
10
6.7149999999999999
20
59.0700000000000003
11
6.7149999999999999
21
72.019999999999996
0
LINE
8
BLACK
6
CONTINUOUS
10
-15.9849999999999994
20
92.4899999999999949
11
-1.9949999999999999
21
92.4899999999999949
0
LINE
8
BLACK
6
CONTINUOUS
10
-1.9949999999999999
20
92.4899999999999949
11
-1.9949999999999999
21
78.5099999999999909
0
LINE
8
BLACK
6
CONTINUOUS
10
-1.9949999999999999
20
78.5099999999999909
11
-15.9849999999999994
21
78.5099999999999909
0
LINE
8
BLACK
6
CONTINUOUS
10
-15.9849999999999994
20
78.5099999999999909
11
-15.9849999999999994
21
92.4899999999999949
0
CIRCLE
8
BLACK
10
55.625
20
56.6599999999999966
40
1.0999999999999999
0
LINE
8
BLACK
6
CONTINUOUS
10
75.5099999999999909
20
6.7299999999999995
11
75.5099999999999909
21
1.0999999999999999
0
LINE
8
BLACK
6
CONTINUOUS
10
3.0449999999999999
20
54.4099999999999966
11
17.0350000000000001
21
54.4099999999999966
0
LINE
8
BLACK
6
CONTINUOUS
10
17.0350000000000001
20
54.4099999999999966
11
17.0350000000000001
21
40.4299999999999997
0
LINE
8
BLACK
6
CONTINUOUS
10
17.0350000000000001
20
40.4299999999999997
11
3.0449999999999999
21
40.4299999999999997
0
LINE
8
BLACK
6
CONTINUOUS
10
3.0449999999999999
20
40.4299999999999997
11
3.0449999999999999
21
54.4099999999999966
0
LINE
8
BLACK
6
CONTINUOUS
10
-11.2249999999999996
20
73.4399999999999977
11
2.7649999999999997
21
73.4399999999999977
0
LINE
8
BLACK
6
CONTINUOUS
10
2.7649999999999997
20
73.4399999999999977
11
2.7649999999999997
21
59.4600000000000009
0
LINE
8
BLACK
6
CONTINUOUS
10
2.7649999999999997
20
59.4600000000000009
11
-11.2249999999999996
21
59.4600000000000009
0
LINE
8
BLACK
6
CONTINUOUS
10
-11.2249999999999996
20
59.4600000000000009
11
-11.2249999999999996
21
73.4399999999999977
0
LINE
8
BLACK
6
CONTINUOUS
10
62.5649999999999977
20
54.4099999999999966
11
76.5549999999999926
21
54.4099999999999966
0
LINE
8
BLACK
6
CONTINUOUS
10
76.5549999999999926
20
54.4099999999999966
11
76.5549999999999926
21
40.4299999999999997
0
LINE
8
BLACK
6
CONTINUOUS
10
76.5549999999999926
20
40.4299999999999997
11
62.5649999999999977
21
40.4299999999999997
0
LINE
8
BLACK
6
CONTINUOUS
10
62.5649999999999977
20
40.4299999999999997
11
62.5649999999999977
21
54.4099999999999966
0
LINE
8
BLACK
6
CONTINUOUS
10
41.144999999999996
20
54.4099999999999966
11
55.134999999999998
21
54.4099999999999966
0
LINE
8
BLACK
6
CONTINUOUS
10
55.134999999999998
20
54.4099999999999966
11
55.134999999999998
21
40.4299999999999997
0
LINE
8
BLACK
6
CONTINUOUS
10
55.134999999999998
20
40.4299999999999997
11
41.144999999999996
21
40.4299999999999997
0
LINE
8
BLACK
6
CONTINUOUS
10
41.144999999999996
20
40.4299999999999997
11
41.144999999999996
21
54.4099999999999966
0
CIRCLE
8
BLACK
10
76.1899999999999977
20
0.016768
40
1.8732329999999999
0
LINE
8
BLACK
6
CONTINUOUS
10
76.6049999999999898
20
111.6599999999999966
11
90.6949999999999932
21
111.6599999999999966
0
LINE
8
BLACK
6
CONTINUOUS
10
90.6949999999999932
20
111.6599999999999966
11
90.6949999999999932
21
97.5600000000000023
0
LINE
8
BLACK
6
CONTINUOUS
10
90.6949999999999932
20
97.5600000000000023
11
76.6049999999999898
21
97.5600000000000023
0
LINE
8
BLACK
6
CONTINUOUS
10
76.6049999999999898
20
97.5600000000000023
11
76.6049999999999898
21
111.6599999999999966
0
LINE
8
BLACK
6
CONTINUOUS
10
70.2000000000000028
20
6.7299999999999995
11
80.8199999999999932
21
6.7299999999999995
0
LINE
8
BLACK
6
CONTINUOUS
10
80.8199999999999932
20
6.7299999999999995
11
80.8199999999999932
21
1.0999999999999999
0
LINE
8
BLACK
6
CONTINUOUS
10
80.8199999999999932
20
1.0999999999999999
11
70.2000000000000028
21
1.0999999999999999
0
LINE
8
BLACK
6
CONTINUOUS
10
70.2000000000000028
20
1.0999999999999999
11
70.2000000000000028
21
6.7299999999999995
0
CIRCLE
8
BLACK
10
17.5350000000000001
20
95.4599999999999937
40
1.0999999999999999
0
LINE
8
BLACK
6
CONTINUOUS
10
5.4449999999999994
20
92.4899999999999949
11
19.4349999999999987
21
92.4899999999999949
0
LINE
8
BLACK
6
CONTINUOUS
10
19.4349999999999987
20
92.4899999999999949
11
19.4349999999999987
21
78.5099999999999909
0
LINE
8
BLACK
6
CONTINUOUS
10
19.4349999999999987
20
78.5099999999999909
11
5.4449999999999994
21
78.5099999999999909
0
LINE
8
BLACK
6
CONTINUOUS
10
5.4449999999999994
20
78.5099999999999909
11
5.4449999999999994
21
92.4899999999999949
0
CIRCLE
8
BLACK
10
55.6149999999999949
20
95.4599999999999937
40
1.0999999999999999
0
LINE
8
BLACK
6
CONTINUOUS
10
57.8350000000000009
20
111.539999999999992
11
71.8250000000000028
21
111.539999999999992
0
LINE
8
BLACK
6
CONTINUOUS
10
71.8250000000000028
20
111.539999999999992
11
71.8250000000000028
21
97.5600000000000023
0
LINE
8
BLACK
6
CONTINUOUS
10
71.8250000000000028
20
97.5600000000000023
11
57.8350000000000009
21
97.5600000000000023
0
LINE
8
BLACK
6
CONTINUOUS
10
57.8350000000000009
20
97.5600000000000023
11
57.8350000000000009
21
111.539999999999992
0
CIRCLE
8
BLACK
10
78.7399999999999949
20
5.0499999999999998
40
1.417392
0
LINE
8
BLACK
6
CONTINUOUS
10
75.5099999999999909
20
6.7299999999999995
11
76.2154000000000025
21
6.7299999999999995
0
LINE
8
BLACK
6
CONTINUOUS
10
76.2154000000000025
20
6.7299999999999995
11
76.2154000000000025
21
0.016768
0
LINE
8
BLACK
6
CONTINUOUS
10
76.2154000000000025
20
0.016768
11
75.5099999999999909
21
0.016768
0
LINE
8
BLACK
6
CONTINUOUS
10
75.5099999999999909
20
0.016768
11
75.5099999999999909
21
6.7299999999999995
  0
ENDSEC
  0
EOF
